D:/PROGRAMMES/Krita (x64)/bin/ffmpeg.exe -hide_banner -y -y -r 11 -start_number 0 -start_number_range 1 -i C:/Users/asus/Downloads/hangman/assets/frame%04d.png -i C:/Users/asus/Downloads/hangman/assets/KritaTempPalettegen_%06d.png -lavfi [0:v][1:v]paletteuse=dither=sierra2_4a:diff_mode=none -f gif -loop 0 -gifflags +transdiff C:/Users/asus/Downloads/hangman/assets/4_lives.gif
=====================================================
Input #0, image2, from 'C:/Users/asus/Downloads/hangman/assets/frame%04d.png':
  Duration: 00:00:02.40, start: 0.000000, bitrate: N/A
  Stream #0:0: Video: png, rgba(pc), 1080x1080 [SAR 11811:11811 DAR 1:1], 25 fps, 25 tbr, 25 tbn, 25 tbc
Input #1, image2, from 'C:/Users/asus/Downloads/hangman/assets/KritaTempPalettegen_%06d.png':
  Duration: 00:00:00.04, start: 0.000000, bitrate: N/A
  Stream #1:0: Video: png, rgba(pc), 16x16 [SAR 1:1 DAR 1:1], 25 fps, 25 tbr, 25 tbn, 25 tbc
Stream mapping:
  Stream #0:0 (png) -> paletteuse:default
  Stream #1:0 (png) -> paletteuse:palette
  paletteuse -> Stream #0:0 (gif)
Press [q] to stop, [?] for help
[image2 @ 0000013cd7d2ca80] Thread message queue blocking; consider raising the thread_queue_size option (current value: 8)
Output #0, gif, to 'C:/Users/asus/Downloads/hangman/assets/4_lives.gif':
  Metadata:
    encoder         : Lavf58.76.100
  Stream #0:0: Video: gif, pal8(pc, gbr/unknown/unknown, progressive), 1080x1080 [SAR 1:1 DAR 1:1], q=2-31, 200 kb/s, 11 fps, 100 tbn (default)
    Metadata:
      encoder         : Lavc58.134.100 gif
frame=    1 fps=0.0 q=-0.0 size=       0kB time=00:00:00.01 bitrate=   0.0kbits/s speed=0.219x    frame=   14 fps=0.0 q=-0.0 size=     229kB time=00:00:01.19 bitrate=1576.6kbits/s speed=2.07x    frame=   27 fps= 25 q=-0.0 size=     256kB time=00:00:02.37 bitrate= 884.9kbits/s speed=2.19x    frame=   41 fps= 25 q=-0.0 size=     512kB time=00:00:03.65 bitrate=1149.1kbits/s speed=2.25x    frame=   55 fps= 26 q=-0.0 size=     768kB time=00:00:04.92 bitrate=1278.8kbits/s speed=2.29x    frame=   60 fps= 25 q=-0.0 Lsize=    1051kB time=00:00:05.37 bitrate=1603.7kbits/s speed=2.26x    
video:1051kB audio:0kB subtitle:0kB other streams:0kB global headers:0kB muxing overhead: 0.001858%
